<svg width="492" height="396" viewBox="0 0 492 396" fill="none" xmlns="http://www.w3.org/2000/svg">
<g clip-path="url(#clip0)">
<path d="M245.595 389.508C381.457 389.508 491.595 379.19 491.595 366.462C491.595 353.734 381.457 343.416 245.595 343.416C109.733 343.416 -0.405273 353.734 -0.405273 366.462C-0.405273 379.19 109.733 389.508 245.595 389.508Z" fill="#E5E5E5" fill-opacity="0.69"/>
<path d="M343.265 338.304C350.479 338.304 356.315 332.461 356.315 325.239V305.277C356.315 298.055 350.479 292.212 343.265 292.212C336.051 292.212 330.215 298.055 330.215 305.277V325.239C330.215 332.461 336.051 338.304 343.265 338.304Z" stroke="#4D4D61" stroke-width="3" stroke-miterlimit="10" stroke-linecap="round" stroke-linejoin="round"/>
<path d="M343.265 338.304C350.479 338.304 356.315 332.461 356.315 325.239V305.277C356.315 298.055 350.479 292.212 343.265 292.212C336.051 292.212 330.215 298.055 330.215 305.277V325.239C330.215 332.461 336.051 338.304 343.265 338.304Z" fill="#4D4D61"/>
<path d="M333.863 329.946V309.984C333.863 302.761 339.699 296.919 346.913 296.919C350.074 296.919 352.911 298.055 355.18 299.84C353.154 295.296 348.615 292.131 343.265 292.131C336.051 292.131 330.215 297.974 330.215 305.196V325.158C330.215 329.297 332.08 332.948 335.079 335.302C334.268 333.76 333.863 331.893 333.863 329.946Z" fill="#56566D"/>
<path d="M343.103 297.487C347.087 297.487 350.317 296.324 350.317 294.89C350.317 293.456 347.087 292.293 343.103 292.293C339.119 292.293 335.889 293.456 335.889 294.89C335.889 296.324 339.119 297.487 343.103 297.487Z" fill="#4D4D61"/>
<path d="M343.265 294.89C345.94 294.89 348.128 292.699 348.128 290.021V267.543C348.128 265.271 346.264 263.405 343.994 263.405H342.616C340.347 263.405 338.483 265.271 338.483 267.543V290.021C338.402 292.699 340.59 294.89 343.265 294.89Z" fill="#4D4D61"/>
<path d="M343.265 294.89C345.94 294.89 348.128 292.699 348.128 290.021V267.462C348.128 265.19 346.345 263.405 344.075 263.405H342.535C340.266 263.405 338.483 265.19 338.483 267.462V290.021C338.402 292.699 340.59 294.89 343.265 294.89Z" stroke="#4D4D61" stroke-width="3" stroke-miterlimit="10" stroke-linecap="round" stroke-linejoin="round"/>
<path d="M241.137 96.0786H227.276C224.683 96.0786 222.575 93.9688 222.575 91.3721C222.575 88.7754 224.683 86.6655 227.276 86.6655H233.112C237.732 86.6655 241.461 82.9327 241.461 78.3073C241.461 73.6819 237.732 69.9491 233.112 69.9491H214.794C214.064 69.9491 213.416 69.2999 213.416 68.5696C213.416 67.8393 214.064 67.1901 214.794 67.1901H216.82C217.631 67.1901 218.279 66.5409 218.279 65.7294C218.279 64.918 217.631 64.2688 216.82 64.2688H202.474C201.501 64.2688 200.69 65.0803 200.69 66.054C200.69 67.0278 201.501 67.8393 202.474 67.8393H208.066C209.687 67.8393 211.065 69.2188 211.065 70.8417C211.065 72.4647 209.687 73.8442 208.066 73.8442H205.392C201.582 73.8442 198.421 76.9278 198.421 80.8229C198.421 84.718 201.501 87.8016 205.392 87.8016H211.065C212.362 87.8016 213.416 88.8565 213.416 90.1549C213.416 91.4532 212.362 92.5081 211.065 92.5081H208.877C206.364 92.5081 204.338 94.5368 204.338 97.0524C204.338 99.568 206.364 101.597 208.877 101.597H238.462C240.083 101.597 241.461 102.976 241.38 104.599L241.299 106.871H247.216V102.165C247.054 98.7565 244.379 96.0786 241.137 96.0786ZM221.927 78.4696C221.927 77.7393 222.494 77.0901 223.305 77.0901H231.329C232.058 77.0901 232.707 77.6581 232.707 78.4696C232.707 79.1999 232.14 79.8491 231.329 79.8491H223.305C222.494 79.768 221.927 79.1999 221.927 78.4696Z" fill="#E5E5E5"/>
<path d="M198.178 63.9444H195.746C194.854 63.9444 194.125 63.2141 194.125 62.3214C194.125 61.4288 194.854 60.6985 195.746 60.6985H198.178C199.069 60.6985 199.799 61.4288 199.799 62.3214C199.799 63.2141 199.069 63.9444 198.178 63.9444Z" fill="#E5E5E5"/>
<path d="M393.276 246.607L389.872 241.008C389.142 239.791 389.547 238.168 390.763 237.357C391.979 236.626 393.6 237.032 394.411 238.249L397.815 243.848C398.544 245.066 398.139 246.689 396.923 247.5C395.626 248.312 394.005 247.906 393.276 246.607Z" fill="#4D4D61"/>
<path d="M399.76 244.498L394.248 241.008C393.033 240.197 392.627 238.574 393.438 237.357C394.248 236.139 395.869 235.734 397.085 236.545L402.597 240.035C403.813 240.846 404.218 242.469 403.407 243.686C402.678 244.903 401.057 245.228 399.76 244.498Z" fill="#4D4D61"/>
<path d="M404.218 240.116L397.734 239.223C396.275 239.061 395.302 237.681 395.464 236.22C395.626 234.76 397.004 233.786 398.463 233.948L404.948 234.841C406.407 235.003 407.379 236.383 407.217 237.843C406.974 239.304 405.677 240.278 404.218 240.116Z" fill="#4D4D61"/>
<path d="M406.488 234.76L400.003 235.652C398.544 235.896 397.247 234.841 397.004 233.38C396.761 231.92 397.815 230.621 399.274 230.378L405.758 229.485C407.217 229.242 408.514 230.297 408.757 231.757C408.919 233.218 407.947 234.516 406.488 234.76Z" fill="#4D4D61"/>
<path d="M407.461 229.242L401.219 231.19C399.841 231.595 398.382 230.865 397.896 229.404C397.491 228.025 398.22 226.564 399.679 226.077L405.92 224.13C407.298 223.724 408.757 224.454 409.244 225.915C409.568 227.376 408.838 228.836 407.461 229.242Z" fill="#4D4D61"/>
<path d="M407.622 223.562L401.543 225.915C400.165 226.402 398.625 225.753 398.139 224.373C397.653 222.994 398.301 221.452 399.679 220.965L405.758 218.612C407.136 218.125 408.676 218.774 409.162 220.153C409.649 221.533 409 222.994 407.622 223.562Z" fill="#4D4D61"/>
<path d="M407.46 217.881L401.624 220.884C400.327 221.533 398.706 221.046 398.058 219.748C397.41 218.449 397.896 216.826 399.193 216.177L405.029 213.175C406.325 212.526 407.947 213.012 408.595 214.311C409.243 215.609 408.757 217.232 407.46 217.881Z" fill="#4D4D61"/>
<path d="M406.974 214.067L401.138 217.07C399.841 217.719 398.22 217.232 397.572 215.934C396.923 214.635 397.41 213.012 398.706 212.363L404.542 209.361C405.839 208.712 407.46 209.198 408.109 210.497C408.757 211.795 408.271 213.418 406.974 214.067Z" fill="#4D4D61"/>
<path d="M251.35 111.821C245.433 111.821 240.65 116.609 240.65 122.533C240.65 128.457 245.433 133.244 251.35 133.244C257.267 133.244 262.049 128.457 262.049 122.533C262.049 116.609 257.267 111.821 251.35 111.821ZM251.35 129.106C247.783 129.106 244.865 126.184 244.865 122.614C244.865 119.043 247.783 116.122 251.35 116.122C254.916 116.122 257.834 119.043 257.834 122.614C257.834 126.184 254.916 129.106 251.35 129.106Z" stroke="#4D4D61" stroke-width="2" stroke-miterlimit="10" stroke-linecap="round" stroke-linejoin="round"/>
<path d="M260.184 116.934H259.05H250.944C248.513 116.934 246.891 119.53 248.107 121.721C249.809 124.967 253.295 127.239 257.266 127.239H258.32V139.411H269.425V126.103C269.344 121.072 265.21 116.934 260.184 116.934Z" fill="#F7E3CB"/>
<path d="M260.185 116.934H259.05H255.564C260.671 116.934 264.805 121.072 264.805 126.184V139.493H269.425V126.184C269.344 121.072 265.21 116.934 260.185 116.934Z" fill="#EDD6BC"/>
<path d="M260.185 116.934H259.05H249.728C248.026 116.934 246.892 118.557 247.378 120.098C248.756 124.237 252.646 127.239 257.185 127.239H258.239V139.411H269.344V126.103C269.344 121.072 265.21 116.934 260.185 116.934Z" stroke="#4D4D61" stroke-width="2" stroke-miterlimit="10" stroke-linecap="round" stroke-linejoin="round"/>
<path d="M228.978 137.87H244.541C247.945 137.87 250.782 135.111 250.782 131.621V107.358H222.737V131.621C222.737 135.029 225.493 137.87 228.978 137.87Z" fill="#FFD680"/>
<path d="M222.737 129.106H226.385C231.41 129.106 235.382 125.048 235.382 120.098V116.609L237.246 118.07" stroke="#4D4D61" stroke-width="2" stroke-miterlimit="10" stroke-linecap="round" stroke-linejoin="round"/>
<path d="M242.596 107.277V131.54C242.596 134.948 239.84 137.789 236.354 137.789H244.46C247.864 137.789 250.701 135.03 250.701 131.54V107.277H242.596Z" fill="#EABD6C"/>
<path d="M228.978 137.87H244.541C247.945 137.87 250.782 135.111 250.782 131.621V107.358H222.737V131.621C222.737 135.029 225.493 137.87 228.978 137.87Z" stroke="#4D4D61" stroke-width="2" stroke-miterlimit="10" stroke-linecap="round" stroke-linejoin="round"/>
<path d="M298.037 140.304L302.09 148.662L308.088 144.524L298.037 140.304Z" fill="#CA4361"/>
<path d="M298.037 140.304L302.09 148.662L308.088 144.524L298.037 140.304Z" stroke="#4D4D61" stroke-width="2" stroke-miterlimit="10" stroke-linecap="round" stroke-linejoin="round"/>
<path d="M311.81 331.098L322.896 324.205L276.668 249.686L265.582 256.579L311.81 331.098Z" fill="#F7E3CB"/>
<path d="M311.81 331.098L322.896 324.205L276.668 249.686L265.582 256.579L311.81 331.098Z" stroke="#4D4D61" stroke-width="3" stroke-miterlimit="10" stroke-linecap="round" stroke-linejoin="round"/>
<path d="M144.763 309.172L230.6 240.034L238.867 250.016L153.031 319.234L144.763 309.172Z" fill="#F7E3CB"/>
<path d="M154.166 301.625L162.028 312.012L169.809 305.926L161.947 295.296L154.166 301.625Z" fill="#EDD6BC"/>
<path d="M144.763 309.172L230.6 240.034L238.867 250.016L153.031 319.234L144.763 309.172Z" stroke="#4D4D61" stroke-width="2" stroke-miterlimit="10" stroke-linecap="round" stroke-linejoin="round"/>
<path d="M329.486 140.304L323.326 133.163C320.732 130.161 316.193 129.836 313.194 132.352C310.114 134.948 309.79 139.574 312.384 142.576L318.544 149.717C328.27 160.997 327.054 178.119 315.707 187.857C304.44 197.594 287.338 196.377 277.611 185.016C273.396 180.066 271.046 173.818 271.046 167.326V137.951H256.618V167.407C256.618 177.389 260.185 186.964 266.669 194.511C281.664 211.876 307.845 213.824 325.19 198.812C342.536 183.962 344.4 157.67 329.486 140.304Z" stroke="#4D4D61" stroke-width="2" stroke-miterlimit="10" stroke-linecap="round" stroke-linejoin="round"/>
<path d="M306.223 144.524C306.223 144.524 315.544 153.856 321.542 162.295C327.459 170.653 331.836 181.77 331.836 183.961C335.241 186.152 336.132 187.37 336.7 186.802C337.267 186.234 337.267 182.988 337.267 180.147C337.267 177.226 310.924 141.359 306.223 144.524Z" fill="#CA4361"/>
<path d="M306.223 144.524C306.223 144.524 315.544 153.856 321.542 162.295C327.459 170.653 331.836 181.77 331.836 183.961C335.241 186.152 336.132 187.37 336.7 186.802C337.267 186.234 337.267 182.988 337.267 180.147C337.267 177.226 310.924 141.359 306.223 144.524Z" stroke="#4D4D61" stroke-width="2" stroke-miterlimit="10" stroke-linecap="round" stroke-linejoin="round"/>
<path d="M334.592 332.948L271.289 352.18C270.154 352.505 268.938 351.856 268.533 350.72L268.452 350.557C268.128 349.421 268.776 348.204 269.911 347.798L333.215 328.566C334.349 328.242 335.565 328.891 335.97 330.027L336.051 330.189C336.376 331.407 335.727 332.624 334.592 332.948Z" fill="#595D5C"/>
<path d="M334.592 332.948L271.289 352.18C270.154 352.505 268.938 351.856 268.533 350.72L268.452 350.557C268.128 349.421 268.776 348.204 269.911 347.798L333.215 328.566C334.349 328.242 335.565 328.891 335.97 330.027L336.051 330.189C336.376 331.407 335.727 332.624 334.592 332.948Z" stroke="#4D4D61" stroke-width="2" stroke-miterlimit="10" stroke-linecap="round" stroke-linejoin="round"/>
<path d="M324.461 316.638L324.218 316.719C322.84 319.153 319.922 321.344 316.193 322.48C313.437 323.292 310.682 323.454 308.412 322.886C306.386 322.399 304.278 322.318 302.252 322.886L277.287 329.865C274.288 330.676 271.938 332.948 270.722 336.113L268.047 343.092C267.155 345.445 269.182 348.123 271.37 347.474L332.647 328.81L330.054 320.37C329.243 317.693 326.73 316.07 324.461 316.638Z" fill="#9B8462"/>
<path d="M270.722 336.194L270.316 337.33C272.424 338.953 275.261 339.602 278.098 338.791L316.355 327.106C320.003 325.97 322.272 322.724 322.353 319.072C320.813 320.533 318.706 321.75 316.274 322.48C313.518 323.292 310.763 323.454 308.493 322.886C306.467 322.399 304.359 322.318 302.333 322.886L277.368 329.865C274.288 330.676 271.937 332.948 270.722 336.194Z" fill="#E1C885"/>
<path d="M324.461 316.638L324.218 316.719C322.84 319.153 319.922 321.344 316.193 322.48C313.437 323.292 310.682 323.454 308.412 322.886C306.386 322.399 304.278 322.318 302.252 322.886L277.287 329.865C274.288 330.676 271.938 332.948 270.722 336.113L268.047 343.092C267.155 345.445 269.182 348.123 271.37 347.474L332.647 328.81L330.054 320.37C329.243 317.693 326.73 316.07 324.461 316.638Z" stroke="#4D4D61" stroke-width="2" stroke-miterlimit="10" stroke-linecap="round" stroke-linejoin="round"/>
<path d="M302.251 330.189L306.547 322.562L303.305 322.643L302.251 330.189Z" stroke="#4D4D61" stroke-width="2" stroke-miterlimit="10" stroke-linecap="round" stroke-linejoin="round"/>
<path d="M290.175 123.507C324.704 145.092 348.453 179.904 356.396 219.342H367.582C361.259 179.093 338.483 143.225 304.521 120.342" fill="#F7E3CB"/>
<path d="M357.531 261.376L366.528 255.534H321.057L330.054 261.376C338.483 266.813 349.182 266.813 357.531 261.376Z" stroke="#4D4D61" stroke-width="3" stroke-miterlimit="10" stroke-linecap="round" stroke-linejoin="round"/>
<path d="M357.531 261.376L366.528 255.534H321.057L330.054 261.376C338.483 266.813 349.182 266.813 357.531 261.376Z" fill="#4D4D61"/>
<path d="M301.928 121.559C311.249 117.664 317.895 108.413 317.895 97.6205V88.8566H319.679C325.839 88.8566 330.864 83.8255 330.864 77.6583C330.864 71.491 326.568 65.7296 320.327 65.7296L317.328 65.973L317.814 52.1779C317.814 37.8148 306.223 26.2107 291.877 26.2107C277.53 26.2107 265.939 37.8148 265.939 52.1779V66.3787H258.239C255.889 66.3787 253.943 68.3263 253.943 70.6796C253.943 77.0091 259.05 82.2025 265.453 82.2025H266.02V97.6205C266.02 111.334 276.72 122.614 290.175 123.507" fill="#F7E3CB"/>
<path d="M384.522 239.872H297.064C296.74 239.872 296.497 239.872 296.173 239.953C289.445 240.44 284.177 246.364 284.663 253.343C285.068 259.591 290.256 264.703 296.578 265.028C299.091 265.109 301.441 264.541 303.387 263.405C311.654 258.617 320.894 255.696 330.54 255.696H384.522C388.818 255.696 392.303 252.207 392.303 247.906C392.384 243.443 388.818 239.872 384.522 239.872Z" fill="#CA4361"/>
<path d="M298.118 257.643C297.632 250.665 302.9 244.822 309.628 244.254C309.871 244.254 310.195 244.173 310.519 244.173H391.574C390.277 241.576 387.683 239.872 384.603 239.872H297.064C296.74 239.872 296.497 239.872 296.173 239.953C289.445 240.44 284.177 246.364 284.663 253.343C285.068 259.591 290.256 264.703 296.578 265.028C298.037 265.109 299.415 264.947 300.712 264.541C299.253 262.512 298.28 260.159 298.118 257.643Z" fill="#D35375"/>
<path d="M384.522 239.872H297.064C296.74 239.872 296.497 239.872 296.173 239.953C289.445 240.44 284.177 246.364 284.663 253.343C285.068 259.591 290.256 264.703 296.578 265.028C299.091 265.109 301.441 264.541 303.387 263.405C311.654 258.617 320.894 255.696 330.54 255.696H384.522C388.818 255.696 392.303 252.207 392.303 247.906C392.384 243.443 388.818 239.872 384.522 239.872Z" stroke="#4D4D61" stroke-width="2" stroke-miterlimit="10" stroke-linecap="round" stroke-linejoin="round"/>
<path d="M374.455 345.269L376.664 339.687L352.55 330.125L350.341 335.708L374.455 345.269Z" fill="#4D4D61"/>
<path d="M314.329 345.202L312.141 339.684L333.458 331.244C334.998 330.676 336.7 331.407 337.349 332.948C337.916 334.49 337.186 336.194 335.646 336.843L314.329 345.202Z" fill="#4D4D61"/>
<path d="M330.54 79.9303L326.811 99.8926C325.271 107.926 317.896 113.444 309.79 112.47H309.709L319.273 72.1401L330.54 79.9303Z" fill="#A3886C"/>
<path d="M330.54 79.9303L326.811 99.8926C325.271 107.926 317.896 113.444 309.79 112.47H309.709L319.273 72.1401L330.54 79.9303Z" stroke="#4D4D61" stroke-width="2" stroke-miterlimit="10" stroke-linecap="round" stroke-linejoin="round"/>
<path d="M265.939 83.5819V81.7155C265.939 79.1188 263.67 77.1713 261.157 77.6582L258.158 78.7131L265.939 83.5819Z" fill="#EDD6BC"/>
<path d="M319.273 66.3787H317.814V52.5024C311.573 62.159 301.847 74.8991 301.847 74.8991V91.4533V92.3459C301.847 105.086 291.553 115.392 278.827 115.392H272.91C277.611 120.423 284.339 123.588 291.796 123.588C306.142 123.588 317.733 111.984 317.733 97.6205V88.8565H319.516C325.92 88.8565 331.026 83.5008 330.702 77.0901C330.54 71.0041 325.271 66.3787 319.273 66.3787Z" fill="#EDD6BC"/>
<path d="M304.521 120.342C312.465 115.879 317.895 107.439 317.895 97.6205V88.8566H319.679C325.839 88.8566 330.864 83.8255 330.864 77.6583C330.864 71.491 326.568 65.7296 320.327 65.7296L317.328 65.973L317.814 52.1779C317.814 37.8148 306.223 26.2107 291.877 26.2107C277.53 26.2107 265.939 37.8148 265.939 52.1779V66.3787H258.239C255.889 66.3787 253.943 68.3263 253.943 70.6796C253.943 77.0091 259.05 82.2025 265.453 82.2025H266.02V97.6205C266.02 111.334 276.72 122.614 290.175 123.507" stroke="#4D4D61" stroke-width="2" stroke-miterlimit="10" stroke-linecap="round" stroke-linejoin="round"/>
<path d="M276.071 62.3213C276.967 62.3213 277.692 61.5947 277.692 60.6984C277.692 59.8021 276.967 59.0754 276.071 59.0754C275.176 59.0754 274.45 59.8021 274.45 60.6984C274.45 61.5947 275.176 62.3213 276.071 62.3213Z" stroke="#4D4D61" stroke-width="2" stroke-miterlimit="10"/>
<path d="M291.391 77.2524V90.3983C291.391 98.7565 284.582 105.573 276.233 105.573C270.56 105.573 266.021 100.948 266.021 95.3483" stroke="#4D4D61" stroke-miterlimit="10" stroke-linecap="round" stroke-linejoin="round"/>
<path d="M289.932 76.5222L292.85 78.064" stroke="#4D4D61" stroke-width="2" stroke-miterlimit="10" stroke-linecap="round" stroke-linejoin="round"/>
<path d="M279.395 45.4426L276.477 51.123L287.905 58.1016L288.635 53.2328L279.395 45.4426Z" fill="#B0977A"/>
<path d="M279.395 45.4426L278.503 47.2279C281.664 48.1205 284.015 50.8795 284.015 54.2877C284.015 54.7746 283.934 55.2615 283.853 55.6672L287.905 58.1828L288.635 53.3139L279.395 45.4426Z" fill="#A3886C"/>
<path d="M279.395 45.4426L276.477 51.123L287.905 58.1016L288.635 53.2328L279.395 45.4426Z" stroke="#4D4D61" stroke-miterlimit="10" stroke-linecap="round" stroke-linejoin="round"/>
<path d="M335.079 37.8959C337.835 39.6 339.051 40.0868 341.725 40.0868C337.105 33.595 335.971 20.8549 329.081 12.8213C326.001 9.16962 322.516 5.19339 315.869 3.1647C304.44 -0.243495 293.66 3.57043 292.282 4.30076C283.934 8.76388 275.585 18.9885 278.017 27.7524C278.26 28.7262 277.449 29.3754 278.017 30.1057C287.176 23.127 301.604 25.2368 308.412 34.65C313.843 42.1155 312.384 54.2877 307.115 61.2663C305.575 62.8082 304.927 68.0016 302.657 73.195L308.736 69.4623C314.978 65.6483 324.38 66.7844 329.567 71.9778C330.459 73.5196 331.026 75.1426 331.269 76.7655C331.918 76.3598 332.728 75.8729 333.701 75.0614C339.699 70.0303 340.753 62.4024 340.996 60.4549C342.779 48.9319 336.376 39.3565 335.079 37.8959Z" fill="#B0977A"/>
<path d="M341.807 40.1679C337.186 33.6761 336.052 20.936 329.162 12.9024C326.487 9.7376 323.488 6.24826 318.301 4.13843C323.975 10.7114 327.46 19.313 327.46 28.7261C327.46 43.495 318.949 56.2351 306.548 62.4024C305.413 64.5933 304.684 68.9753 302.738 73.3573L308.817 69.6245C315.059 65.8105 324.461 66.9466 329.648 72.1401C330.54 73.6819 331.107 75.3048 331.35 76.9278C331.999 76.522 332.809 76.0352 333.782 75.2237C339.78 70.1925 340.834 62.5647 341.077 60.6171C342.698 49.013 336.214 39.3564 334.998 37.9769C337.916 39.681 339.132 40.1679 341.807 40.1679Z" fill="#A3886C"/>
<path d="M335.079 37.8959C337.835 39.6 339.051 40.0868 341.725 40.0868C337.105 33.595 335.971 20.8549 329.081 12.8213C326.001 9.16961 322.516 5.19339 315.869 3.1647C304.44 -0.243495 293.66 3.57043 292.282 4.30076C283.934 8.76388 275.585 18.9885 278.017 27.7524C278.26 28.7262 277.449 29.3754 278.017 30.1057C287.176 23.127 301.604 25.2368 308.412 34.65C313.843 42.1155 312.384 54.2877 307.115 61.2663C305.575 62.8081 304.927 68.0016 302.657 73.195L311.816 67.677C317.895 63.9442 325.92 65.8917 329.567 72.059C330.459 73.6008 331.026 75.2237 331.269 76.8467C331.918 76.4409 332.728 75.9541 333.701 75.1426C339.699 70.1114 340.753 62.4836 340.996 60.536C342.779 48.9319 336.376 39.3565 335.079 37.8959Z" stroke="#4D4D61" stroke-width="2" stroke-miterlimit="10" stroke-linecap="round" stroke-linejoin="round"/>
<path d="M314.491 73.7632L324.136 80.6607" stroke="#4D4D61" stroke-width="2" stroke-miterlimit="10" stroke-linecap="round" stroke-linejoin="round"/>
<path d="M322.92 72.1401L316.031 81.7967" stroke="#4D4D61" stroke-width="2" stroke-miterlimit="10" stroke-linecap="round" stroke-linejoin="round"/>
<path d="M267.803 79.1187L268.695 79.9302C268.695 79.9302 270.316 78.2261 272.423 79.1187C271.856 77.9827 267.155 77.4146 267.803 79.1187Z" stroke="#4D4D61" stroke-width="2" stroke-miterlimit="10" stroke-linecap="round" stroke-linejoin="round"/>
<path d="M290.175 123.507C324.704 145.092 348.453 179.904 356.396 219.342H367.582C361.259 179.093 338.483 143.225 304.521 120.342" stroke="#4D4D61" stroke-width="2" stroke-miterlimit="10" stroke-linecap="round" stroke-linejoin="round"/>
<path d="M249.373 237.23L299.032 317.263L315.626 306.943L265.968 226.91L249.373 237.23Z" fill="#475C80"/>
<path opacity="0.57" d="M259.212 253.667L294.957 310.714C297.226 309.253 304.116 312.418 302.657 310.146L269.992 261.214C268.533 258.942 262.292 253.018 259.941 254.479L259.212 253.667Z" fill="#6987AF"/>
<path d="M257.672 250.584C257.672 250.584 272.991 245.796 278.26 246.77C272.91 236.464 270.965 234.435 270.965 234.435L250.458 241.089L257.672 250.584Z" fill="#4D4D61"/>
<path d="M249.373 237.23L299.032 317.263L315.626 306.943L265.968 226.91L249.373 237.23Z" stroke="#4D4D61" stroke-width="2" stroke-miterlimit="10" stroke-linecap="round" stroke-linejoin="round"/>
<path d="M219.739 243.605L157.246 295.215L169.647 310.308L226.709 263.161C245.027 247.987 268.128 239.71 291.877 239.71H362.637C367.987 239.71 372.364 235.328 372.364 229.972V220.234H284.825C261.076 220.153 238.057 228.43 219.739 243.605Z" fill="#475C80"/>
<path opacity="0.57" d="M161.136 291.969L166.647 299.678L231.896 241.171L228.573 237.032C225.493 239.061 222.575 241.252 219.738 243.605L161.136 291.969Z" fill="#6987AF"/>
<path opacity="0.57" d="M270.722 225.184L343.752 226.158C347.561 226.158 360.368 223.886 360.368 220.072H284.987C277.206 220.072 252.728 223.886 243.731 228.755C241.38 230.053 259.779 225.184 270.722 225.184Z" fill="#6987AF"/>
<path d="M219.739 243.605L157.246 295.215L169.647 310.308L226.709 263.161C245.027 247.987 268.128 239.71 291.877 239.71H362.637C367.987 239.71 372.364 235.328 372.364 229.972V220.234H284.825C261.076 220.153 238.057 228.43 219.739 243.605Z" stroke="#4D4D61" stroke-width="2" stroke-miterlimit="10" stroke-linecap="round" stroke-linejoin="round"/>
<path d="M372.445 219.342C366.852 182.825 347.967 149.474 319.841 125.86L302.09 138.194C327.298 158.806 344.724 187.532 351.371 219.342H372.445Z" fill="#E5E5E5"/>
<path d="M351.371 219.342H360.287C353.397 185.747 335.241 155.316 309.06 133.325L302.09 138.194C327.298 158.725 344.724 187.532 351.371 219.342Z" fill="white"/>
<path d="M372.445 219.342C366.852 182.825 347.967 149.474 319.841 125.86L302.09 138.194C327.298 158.806 344.724 187.532 351.371 219.342H372.445Z" stroke="#4D4D61" stroke-width="2" stroke-miterlimit="10" stroke-linecap="round" stroke-linejoin="round"/>
<path d="M242.92 163.025C242.92 163.025 236.193 168.625 236.76 157.102C237.003 151.827 243.893 151.989 243.893 151.989L244.622 156.939L242.92 163.025Z" fill="#B0977A"/>
<path d="M242.92 163.025C242.92 163.025 236.193 168.625 236.76 157.102C237.003 151.827 243.893 151.989 243.893 151.989L244.622 156.939L242.92 163.025Z" stroke="#4D4D61" stroke-width="2" stroke-miterlimit="10" stroke-linecap="round" stroke-linejoin="round"/>
<path d="M262.778 150.529C259.536 155.073 254.511 157.994 248.918 158.562C244.703 158.968 244.784 149.23 238.219 160.753C235.625 162.133 232.545 159.374 231.167 157.751C230.762 157.264 230.762 156.534 231.248 156.128C232.464 155.073 234.733 152.557 235.787 148.175C236.517 143.956 237.895 140.872 241.218 142.657C244.136 144.199 262.292 142.008 262.778 150.529Z" fill="#EDD6BC"/>
<path d="M262.778 150.529C259.536 155.073 254.511 157.994 248.918 158.562C244.703 158.968 244.784 149.23 238.219 160.753C235.625 162.133 232.626 159.374 231.167 157.832C230.681 157.345 230.762 156.534 231.248 156.128C232.545 154.992 234.733 152.557 235.706 148.175C236.436 143.956 237.814 140.872 241.137 142.657C244.136 144.199 262.292 142.008 262.778 150.529Z" stroke="#4D4D61" stroke-width="2" stroke-miterlimit="10" stroke-linecap="round" stroke-linejoin="round"/>
<path d="M265.129 160.104C265.129 160.104 262.778 153.288 256.456 150.042C255.808 152.557 252.565 155.073 249.404 155.966L251.187 159.049C252.565 161.565 251.431 164.73 248.756 165.622C246.405 166.434 243.893 165.298 242.92 163.026L238.948 150.935C238.948 150.935 246.729 148.094 249.08 145.66C250.701 144.037 254.511 137.951 254.511 137.951C254.511 137.951 261.562 139.655 266.345 144.443C270.316 148.419 273.883 155.154 273.883 155.154L265.129 160.104Z" fill="#EDD6BC"/>
<path d="M247.621 165.298L243.649 153.207C243.649 153.207 251.431 150.366 253.781 147.932C255.402 146.309 259.212 140.223 259.212 140.223C259.212 140.223 260.266 140.466 261.887 141.116C258.077 138.844 254.43 137.951 254.43 137.951C254.43 137.951 250.62 144.037 248.999 145.66C246.567 148.013 238.867 150.935 238.867 150.935L242.839 163.026C243.649 165.054 245.757 166.19 247.864 165.785C247.783 165.622 247.702 165.46 247.621 165.298Z" fill="#F7E3CB"/>
<path d="M261.157 152.314C261.076 152.639 260.914 152.963 260.752 153.288C263.832 156.534 265.129 160.104 265.129 160.104L267.885 158.562C266.507 156.452 264.318 153.937 261.157 152.314Z" fill="#F7E3CB"/>
<path d="M265.129 160.104C265.129 160.104 262.778 153.288 256.456 150.042C255.808 152.557 252.565 155.073 249.404 155.966L251.187 159.049C252.565 161.565 251.431 164.73 248.756 165.622C246.405 166.434 243.893 165.298 242.92 163.026L238.948 150.935C238.948 150.935 246.729 148.094 249.08 145.66C250.701 144.037 254.511 137.951 254.511 137.951C254.511 137.951 261.562 139.655 266.345 144.443C270.316 148.419 273.883 155.154 273.883 155.154L265.129 160.104Z" stroke="#4D4D61" stroke-width="2" stroke-miterlimit="10" stroke-linecap="round" stroke-linejoin="round"/>
<path d="M242.92 160.753L245.351 160.023C245.351 160.023 246.567 161.24 246.567 162.376C246.567 163.512 243.73 164.405 243.73 164.405C243.73 164.405 241.866 161.727 242.92 160.753Z" stroke="#4D4D61" stroke-miterlimit="10" stroke-linecap="round" stroke-linejoin="round"/>
<path d="M233.437 154.018L235.382 155.641C235.382 155.641 235.058 157.345 234.085 157.913C233.193 158.481 230.843 156.696 230.843 156.696C230.843 156.696 232.059 153.693 233.437 154.018Z" stroke="#4D4D61" stroke-miterlimit="10" stroke-linecap="round" stroke-linejoin="round"/>
<path d="M275.261 153.369L295.93 193.05C298.929 198.811 303.873 203.274 309.952 205.709C323.812 211.227 339.537 204.411 345.049 190.534C350.56 176.658 343.752 160.915 329.891 155.397L321.138 151.908C317.409 150.447 315.626 146.147 317.085 142.495C318.544 138.843 322.759 137.058 326.487 138.519L335.241 142.008C356.558 150.447 366.933 174.629 358.504 195.89C350.074 217.232 325.92 227.619 304.683 219.179C295.443 215.528 287.824 208.63 283.204 199.785L262.859 160.753L275.261 153.369Z" fill="#E5E5E5"/>
<path d="M280.853 164.08L275.261 153.369L262.778 160.753L268.29 171.303L280.853 164.08Z" fill="#E5E5E5"/>
<path d="M262.778 160.753L283.123 199.785C283.852 201.165 284.663 202.544 285.555 203.843C285.068 201.002 287.986 207.088 287.986 207.088L267.236 157.994L262.778 160.753Z" fill="white"/>
<path d="M280.853 164.08L275.261 153.369L262.778 160.753L268.29 171.303L280.853 164.08Z" stroke="#4D4D61" stroke-width="3" stroke-miterlimit="10" stroke-linecap="round" stroke-linejoin="round"/>
<path d="M318.139 147.12C319.598 143.469 323.812 141.683 327.541 143.144L336.295 146.633C348.777 151.583 357.531 161.97 360.935 174.061C358.666 160.104 349.345 147.607 335.322 142.008L326.568 138.519C322.84 137.058 318.706 138.843 317.166 142.495C316.274 144.686 316.518 147.12 317.733 148.987C317.733 148.338 317.896 147.77 318.139 147.12Z" fill="white"/>
<path d="M276.314 155.397L293.255 194.105C297.551 201.895 302.819 207.981 308.817 210.334C322.678 215.852 340.428 209.036 345.94 195.16C348.291 189.155 348.372 182.825 346.589 177.145C347.156 181.527 346.67 186.152 344.886 190.534C339.375 204.41 323.65 211.227 309.79 205.709C303.792 203.274 298.767 198.811 295.768 193.05L275.261 153.369" fill="white"/>
<path d="M275.261 153.369L295.93 193.05C298.929 198.811 303.873 203.274 309.952 205.709C323.812 211.227 339.537 204.411 345.049 190.534C350.56 176.658 343.752 160.915 329.891 155.397L321.138 151.908C317.409 150.447 315.626 146.147 317.085 142.495C318.544 138.843 322.759 137.058 326.487 138.519L335.241 142.008C356.558 150.447 366.933 174.629 358.504 195.89C350.074 217.232 325.92 227.619 304.683 219.179C295.443 215.528 287.824 208.63 283.204 199.785L262.859 160.753L275.261 153.369Z" stroke="#4D4D61" stroke-width="2" stroke-miterlimit="10" stroke-linecap="round" stroke-linejoin="round"/>
<path d="M320.165 123.588L307.115 146.228L292.363 136.49L314.167 121.153L320.165 123.588Z" fill="#E5E5E5"/>
<path d="M309.223 124.643L292.363 136.49L299.01 140.872C299.091 140.791 299.172 140.791 299.253 140.71C306.629 136.652 310.844 129.755 309.223 124.643Z" fill="white"/>
<path d="M320.165 123.588L307.115 146.228L292.363 136.49L314.167 121.153L320.165 123.588Z" stroke="#4D4D61" stroke-width="2" stroke-miterlimit="10" stroke-linecap="round" stroke-linejoin="round"/>
<path d="M302.171 361.431C310.945 361.431 318.057 354.31 318.057 345.526C318.057 336.742 310.945 329.621 302.171 329.621C293.397 329.621 286.284 336.742 286.284 345.526C286.284 354.31 293.397 361.431 302.171 361.431Z" fill="#56566D"/>
<path opacity="0.44" d="M293.012 353.479C293.012 344.715 300.144 337.574 308.898 337.574C311.816 337.574 314.572 338.385 316.923 339.765C314.572 333.841 308.817 329.621 302.09 329.621C293.336 329.621 286.203 336.762 286.203 345.526C286.203 351.369 289.364 356.481 294.065 359.24C293.417 357.455 293.012 355.507 293.012 353.479Z" fill="#66667C"/>
<path d="M302.171 361.431C310.945 361.431 318.057 354.31 318.057 345.526C318.057 336.742 310.945 329.621 302.171 329.621C293.397 329.621 286.284 336.742 286.284 345.526C286.284 354.31 293.397 361.431 302.171 361.431Z" stroke="#4D4D61" stroke-width="3" stroke-miterlimit="10" stroke-linecap="round" stroke-linejoin="round"/>
<path d="M302.171 353.397C306.513 353.397 310.033 349.873 310.033 345.526C310.033 341.179 306.513 337.655 302.171 337.655C297.829 337.655 294.309 341.179 294.309 345.526C294.309 349.873 297.829 353.397 302.171 353.397Z" stroke="#4D4D61" stroke-width="3" stroke-miterlimit="10" stroke-linecap="round" stroke-linejoin="round"/>
<path d="M302.171 353.397C306.513 353.397 310.033 349.873 310.033 345.526C310.033 341.179 306.513 337.655 302.171 337.655C297.829 337.655 294.309 341.179 294.309 345.526C294.309 349.873 297.829 353.397 302.171 353.397Z" fill="#4D4D61"/>
<path d="M320.651 337.655C317.976 337.655 315.545 336.519 313.681 334.571C310.763 331.488 306.71 329.621 302.171 329.621C297.713 329.621 293.741 331.406 290.823 334.409C288.797 336.438 286.203 337.655 283.366 337.655H283.285C286.365 330.27 293.66 325.077 302.171 325.077C310.682 325.077 317.976 330.27 321.056 337.655H320.651Z" fill="#CA4361"/>
<path d="M297.227 325.645C290.904 327.187 285.798 331.731 283.285 337.655H283.366C286.122 337.655 288.716 336.6 290.58 334.653C292.201 332.948 295.524 331.569 298.199 330.757C300.55 330.027 300.712 326.619 298.361 325.807C298.118 325.645 297.632 325.564 297.227 325.645Z" fill="#D35375"/>
<path d="M320.651 337.655C317.976 337.655 315.545 336.519 313.681 334.571C310.763 331.488 306.71 329.621 302.171 329.621C297.713 329.621 293.741 331.406 290.823 334.409C288.797 336.438 286.203 337.655 283.366 337.655H283.285C286.365 330.27 293.66 325.077 302.171 325.077C310.682 325.077 317.976 330.27 321.056 337.655H320.651Z" stroke="#4D4D61" stroke-width="3" stroke-miterlimit="10" stroke-linecap="round" stroke-linejoin="round"/>
<path d="M387.359 361.431C396.133 361.431 403.245 354.31 403.245 345.526C403.245 336.742 396.133 329.621 387.359 329.621C378.585 329.621 371.472 336.742 371.472 345.526C371.472 354.31 378.585 361.431 387.359 361.431Z" fill="#56566D"/>
<path opacity="0.44" d="M378.767 353.479C378.767 344.715 385.9 337.574 394.654 337.574C397.572 337.574 400.327 338.385 402.678 339.765C400.327 333.841 394.573 329.621 387.845 329.621C379.091 329.621 371.958 336.762 371.958 345.526C371.958 351.369 375.12 356.481 379.821 359.24C379.172 357.455 378.767 355.507 378.767 353.479Z" fill="#66667C"/>
<path d="M387.359 361.431C396.133 361.431 403.245 354.31 403.245 345.526C403.245 336.742 396.133 329.621 387.359 329.621C378.585 329.621 371.472 336.742 371.472 345.526C371.472 354.31 378.585 361.431 387.359 361.431Z" stroke="#4D4D61" stroke-width="2" stroke-miterlimit="10" stroke-linecap="round" stroke-linejoin="round"/>
<path d="M100.832 214.392H89.8081V365.894H100.832V214.392Z" stroke="#4D4D61" stroke-width="3" stroke-miterlimit="10" stroke-linecap="round" stroke-linejoin="round"/>
<path d="M100.832 214.392H89.8081V365.894H100.832V214.392Z" fill="#4D4D61"/>
<path d="M387.359 353.397C391.701 353.397 395.221 349.873 395.221 345.526C395.221 341.179 391.701 337.655 387.359 337.655C383.017 337.655 379.497 341.179 379.497 345.526C379.497 349.873 383.017 353.397 387.359 353.397Z" stroke="#4D4D61" stroke-width="3" stroke-miterlimit="10" stroke-linecap="round" stroke-linejoin="round"/>
<path d="M405.839 337.655C403.164 337.655 400.733 336.519 398.869 334.571C395.951 331.488 391.898 329.621 387.359 329.621C382.901 329.621 378.929 331.406 376.011 334.409C373.985 336.438 371.391 337.655 368.554 337.655H368.473C371.553 330.27 378.848 325.077 387.359 325.077C395.87 325.077 403.164 330.27 406.245 337.655H405.839Z" fill="#CA4361"/>
<path d="M387.359 353.397C391.701 353.397 395.221 349.873 395.221 345.526C395.221 341.179 391.701 337.655 387.359 337.655C383.017 337.655 379.497 341.179 379.497 345.526C379.497 349.873 383.017 353.397 387.359 353.397Z" fill="#4D4D61"/>
<path d="M405.839 337.655C403.164 337.655 400.733 336.519 398.869 334.571C395.951 331.488 391.898 329.621 387.359 329.621C382.901 329.621 378.929 331.406 376.011 334.409C373.985 336.438 371.391 337.655 368.554 337.655H368.473C371.553 330.27 378.848 325.077 387.359 325.077C395.87 325.077 403.164 330.27 406.245 337.655H405.839Z" stroke="#4D4D61" stroke-width="2" stroke-miterlimit="10" stroke-linecap="round" stroke-linejoin="round"/>
<path d="M276.233 199.298H38.2578C36.3125 199.298 34.7725 197.757 34.7725 195.809V189.236C34.7725 187.289 36.3125 185.747 38.2578 185.747H276.233C278.179 185.747 279.719 187.289 279.719 189.236V195.809C279.719 197.757 278.179 199.298 276.233 199.298Z" fill="#B98C78"/>
<path d="M125.553 193.212C90.9431 193.212 59.8183 195.565 38.501 199.298H212.687C191.288 195.565 160.164 193.212 125.553 193.212Z" fill="#C9A08F"/>
<path d="M276.233 199.298H38.2578C36.3125 199.298 34.7725 197.757 34.7725 195.809V189.236C34.7725 187.289 36.3125 185.747 38.2578 185.747H276.233C278.179 185.747 279.719 187.289 279.719 189.236V195.809C279.719 197.757 278.179 199.298 276.233 199.298Z" stroke="#4D4D61" stroke-width="2" stroke-miterlimit="10" stroke-linecap="round" stroke-linejoin="round"/>
<path d="M250.539 216.664H63.871C59.0888 216.664 55.1982 212.769 55.1982 207.981C55.1982 203.193 59.0888 199.298 63.871 199.298H250.539C255.321 199.298 259.212 203.193 259.212 207.981C259.212 212.769 255.321 216.664 250.539 216.664Z" stroke="#4D4D61" stroke-width="3" stroke-miterlimit="10" stroke-linecap="round" stroke-linejoin="round"/>
<path d="M250.539 216.664H63.871C59.0888 216.664 55.1982 212.769 55.1982 207.981C55.1982 203.193 59.0888 199.298 63.871 199.298H250.539C255.321 199.298 259.212 203.193 259.212 207.981C259.212 212.769 255.321 216.664 250.539 216.664Z" fill="#4D4D61"/>
<path d="M132.929 212.606C106.262 212.606 83.4047 214.311 73.354 216.664H192.504C182.453 214.229 159.596 212.606 132.929 212.606Z" fill="#575770"/>
<path d="M136.252 172.52C139.162 172.52 141.521 170.158 141.521 167.245C141.521 164.332 139.162 161.97 136.252 161.97C133.343 161.97 130.984 164.332 130.984 167.245C130.984 170.158 133.343 172.52 136.252 172.52Z" fill="#83ABBA"/>
<path d="M136.252 172.52C139.162 172.52 141.521 170.158 141.521 167.245C141.521 164.332 139.162 161.97 136.252 161.97C133.343 161.97 130.984 164.332 130.984 167.245C130.984 170.158 133.343 172.52 136.252 172.52Z" stroke="#4D4D61" stroke-width="3" stroke-miterlimit="10" stroke-linecap="round" stroke-linejoin="round"/>
<path d="M134.712 165.135L135.118 165.054L115.259 54.6123L114.854 54.6935C111.044 55.4238 108.451 59.0754 109.18 62.8894L126.526 159.455C127.174 163.269 130.822 165.784 134.712 165.135Z" fill="#92B4C3"/>
<path d="M126.202 157.751C126.202 145.173 125.067 131.54 122.554 117.502C119.96 102.814 116.151 89.0188 111.612 76.8467L126.202 157.751Z" fill="#ACD3E5"/>
<path d="M134.712 165.135L135.118 165.054L115.259 54.6123L114.854 54.6935C111.044 55.4238 108.451 59.0754 109.18 62.8894L126.526 159.455C127.174 163.269 130.822 165.784 134.712 165.135Z" stroke="#4D4D61" stroke-width="2" stroke-miterlimit="10" stroke-linecap="round" stroke-linejoin="round"/>
<path d="M230.356 215.041H219.333V366.544H230.356V215.041Z" stroke="#4D4D61" stroke-width="3" stroke-miterlimit="10" stroke-linecap="round" stroke-linejoin="round"/>
<path d="M230.356 215.041H219.333V366.544H230.356V215.041Z" fill="#4D4D61"/>
<path d="M146.465 180.066H247.783C252.728 180.066 256.78 176.009 256.78 171.059V167.245H137.468V171.059C137.468 176.009 141.521 180.066 146.465 180.066Z" fill="#92B4C3"/>
<path d="M247.783 177.226H146.465C141.521 177.226 137.468 173.169 137.468 168.219V171.059C137.468 176.009 141.521 180.067 146.465 180.067H247.783C252.728 180.067 256.78 176.009 256.78 171.059V168.219C256.78 173.169 252.728 177.226 247.783 177.226Z" fill="#83ABBA"/>
<path d="M146.465 180.066H247.783C252.728 180.066 256.78 176.009 256.78 171.059V167.245H137.468V171.059C137.468 176.009 141.521 180.066 146.465 180.066Z" stroke="#4D4D61" stroke-width="2" stroke-miterlimit="10" stroke-linecap="round" stroke-linejoin="round"/>
<path d="M152.461 185.681L241.783 185.681L241.783 180.001L152.461 180.001L152.461 185.681Z" stroke="#4D4D61" stroke-width="2" stroke-miterlimit="10" stroke-linecap="round" stroke-linejoin="round"/>
<path d="M152.461 185.681L241.783 185.681L241.783 180.001L152.461 180.001L152.461 185.681Z" fill="#4D4D61"/>
<path d="M197.285 173.543L205.31 173.543L205.31 170.865L197.285 170.865L197.285 173.543Z" stroke="#4D4D61" stroke-miterlimit="10" stroke-linecap="round" stroke-linejoin="round"/>
<path d="M185.849 173.543L193.873 173.543L193.873 170.865L185.849 170.865L185.849 173.543Z" stroke="#4D4D61" stroke-miterlimit="10" stroke-linecap="round" stroke-linejoin="round"/>
<path d="M147.924 173.656C148.73 173.656 149.383 173.002 149.383 172.195C149.383 171.388 148.73 170.734 147.924 170.734C147.119 170.734 146.465 171.388 146.465 172.195C146.465 173.002 147.119 173.656 147.924 173.656Z" stroke="#4D4D61" stroke-miterlimit="10" stroke-linecap="round" stroke-linejoin="round"/>
<path d="M433.641 125.616C434.857 116.284 428.21 107.764 418.808 106.871C409.811 105.979 401.868 112.633 400.652 121.64L389.547 204.329C389.061 208.062 391.655 211.47 395.383 211.957L405.191 213.256C408.919 213.743 412.324 211.146 412.81 207.413L414.431 195.241C417.43 172.925 422.942 150.853 432.344 130.404C432.911 128.943 433.398 127.32 433.641 125.616Z" fill="#CA4361"/>
<path d="M411.107 195.241L409.486 207.413C409.081 210.253 406.974 212.525 404.299 213.093L405.19 213.175C408.919 213.662 412.323 211.065 412.81 207.332L414.431 195.16C417.43 172.844 422.941 150.772 432.344 130.323C432.992 128.862 433.478 127.239 433.722 125.616C434.937 116.285 428.291 107.764 418.889 106.871C417.835 106.79 416.7 106.79 415.728 106.871C425.13 107.845 431.776 116.366 430.56 125.616C430.317 127.321 429.831 128.862 429.183 130.323" fill="#D35375"/>
<path d="M400.652 121.64L392.06 185.747C399.517 164.405 406.731 141.44 406.731 123.588C406.731 111.497 421.402 107.439 425.454 111.497C422.78 106.547 414.269 106.06 409.649 108.738C404.623 111.578 401.138 117.664 400.652 121.64Z" fill="#D35375"/>
<path d="M433.641 125.616C434.857 116.284 428.21 107.764 418.808 106.871C409.811 105.979 401.868 112.633 400.652 121.64L389.547 204.329C389.061 208.062 391.655 211.47 395.383 211.957L405.191 213.256C408.919 213.743 412.324 211.146 412.81 207.413L414.431 195.241C417.43 172.925 422.942 150.853 432.344 130.404C432.911 128.943 433.398 127.32 433.641 125.616Z" stroke="#4D4D61" stroke-width="2" stroke-miterlimit="10" stroke-linecap="round" stroke-linejoin="round"/>
<path d="M155.625 335.545L100.021 299.678C98.9675 299.029 98.7244 297.649 99.3728 296.675L99.4539 296.513C100.102 295.458 101.48 295.215 102.453 295.864L158.056 331.731C159.11 332.38 159.353 333.76 158.705 334.734L158.624 334.896C158.056 335.87 156.678 336.194 155.625 335.545Z" fill="#595D5C"/>
<path d="M155.625 335.545L100.021 299.678C98.9675 299.029 98.7244 297.649 99.3728 296.675L99.4539 296.513C100.102 295.458 101.48 295.215 102.453 295.864L158.056 331.731C159.11 332.38 159.353 333.76 158.705 334.734L158.624 334.896C158.056 335.87 156.678 336.194 155.625 335.545Z" stroke="#4D4D61" stroke-width="2" stroke-miterlimit="10" stroke-linecap="round" stroke-linejoin="round"/>
<path d="M161.541 317.287L161.298 317.125C158.542 317.612 154.976 316.8 151.733 314.69C149.302 313.148 147.438 311.039 146.384 309.01C145.411 307.144 144.114 305.439 142.412 304.303L120.933 289.778C118.42 288.074 115.097 287.749 111.936 288.804L104.965 291.239C102.614 292.05 101.885 295.377 103.749 296.594L157.569 331.326L162.352 323.86C163.811 321.507 163.486 318.585 161.541 317.287Z" fill="#9B8462"/>
<path opacity="0.74" d="M111.936 288.804L110.801 289.21C110.882 291.888 112.26 294.484 114.692 296.107L148.329 317.774C151.491 319.802 155.543 319.478 158.299 317.206C156.192 316.962 153.922 316.151 151.734 314.771C149.302 313.229 147.438 311.12 146.384 309.091C145.411 307.224 144.115 305.52 142.412 304.384L120.933 289.859C118.42 287.993 115.097 287.668 111.936 288.804Z" fill="#E1C885"/>
<path d="M161.541 317.287L161.298 317.125C158.542 317.612 154.976 316.8 151.733 314.69C149.302 313.148 147.438 311.039 146.384 309.01C145.411 307.144 144.114 305.439 142.412 304.303L120.933 289.778C118.42 288.074 115.097 287.749 111.936 288.804L104.965 291.239C102.614 292.05 101.885 295.377 103.749 296.594L157.569 331.326L162.352 323.86C163.811 321.507 163.486 318.585 161.541 317.287Z" stroke="#4D4D61" stroke-width="2" stroke-miterlimit="10" stroke-linecap="round" stroke-linejoin="round"/>
<path d="M136.901 309.01L145.412 307.387L143.223 304.952L136.901 309.01Z" stroke="#4D4D61" stroke-width="2" stroke-miterlimit="10" stroke-linecap="round" stroke-linejoin="round"/>
<path d="M160.245 286.37L153.517 293.024L169.971 313.716L178.077 306.981L160.245 286.37Z" fill="#92B4C3"/>
<path d="M159.758 286.856L153.517 293.024L162.433 304.222C163.892 302.112 164.784 299.597 164.784 296.919C164.784 292.861 162.838 289.21 159.758 286.856Z" fill="#9EC0CC"/>
<path d="M160.245 286.37L153.517 293.024L169.971 313.716L178.077 306.981L160.245 286.37Z" stroke="#4D4D61" stroke-width="2" stroke-miterlimit="10" stroke-linecap="round" stroke-linejoin="round"/>
<path d="M293.012 312.824L298.118 320.857L321.786 309.01L316.923 299.678L293.012 312.824Z" fill="#92B4C3"/>
<path d="M293.012 312.824L298.118 320.857L321.786 309.01L316.923 299.678L293.012 312.824Z" fill="#92B4C3"/>
<path d="M302.171 313.798C302.171 312.012 301.198 310.47 299.577 309.172L293.012 312.824L297.47 319.802C300.307 318.423 302.171 316.232 302.171 313.798Z" fill="#9EC0CC"/>
<path d="M293.012 312.824L298.118 320.857L321.786 309.01L316.923 299.678L293.012 312.824Z" stroke="#4D4D61" stroke-width="2" stroke-miterlimit="10" stroke-linecap="round" stroke-linejoin="round"/>
<path d="M226.952 119.449C227.31 119.449 227.601 118.977 227.601 118.394C227.601 117.812 227.31 117.339 226.952 117.339C226.594 117.339 226.304 117.812 226.304 118.394C226.304 118.977 226.594 119.449 226.952 119.449Z" stroke="#4D4D61" stroke-width="2" stroke-miterlimit="10" stroke-linecap="round" stroke-linejoin="round"/>
<path d="M160.244 176.171H156.191C155.138 176.171 154.246 175.279 154.246 174.224V171.789C154.246 170.734 155.138 169.842 156.191 169.842H160.244C161.298 169.842 162.189 170.734 162.189 171.789V174.224C162.189 175.279 161.298 176.171 160.244 176.171Z" fill="#4D4D61"/>
</g>
<defs>
<clipPath id="clip0">
<rect width="492" height="396" fill="white"/>
</clipPath>
</defs>
</svg>
